<svg id="nuffsaid-main-logo" xmlns="http://www.w3.org/2000/svg" width="115.621" height="22" viewBox="0 0 115.621 22">
  <path id="Path_8321" data-name="Path 8321" d="M67.364,39.258a5.518,5.518,0,0,0-1.177-2.024,4.835,4.835,0,0,0-1.745-1.189,5.7,5.7,0,0,0-2.109-.395h-.117a5.983,5.983,0,0,0-2.492.558,6.269,6.269,0,0,0-2.23,1.7h-.059l-.176-1.917H52v3.894h1.714V50.429H57.9V43.1a4.114,4.114,0,0,1,.205-1.275,3.9,3.9,0,0,1,.587-1.15,2.929,2.929,0,0,1,.939-.822,2.561,2.561,0,0,1,1.261-.3,2.991,2.991,0,0,1,1.041.176,2.149,2.149,0,0,1,.851.575,2.893,2.893,0,0,1,.575,1.026,4.792,4.792,0,0,1,.22,1.57v7.538H67.78V42.16A8.9,8.9,0,0,0,67.364,39.258Z" transform="translate(-42.031 -28.815)" fill="#161e26"/>
  <path id="Path_8322" data-name="Path 8322" d="M158.226,51.912h-3.55l-.174-1.906h-.059a6.307,6.307,0,0,1-2.23,1.7,5.989,5.989,0,0,1-2.492.558H149.6a5.631,5.631,0,0,1-2.126-.4,4.86,4.86,0,0,1-1.725-1.189,5.525,5.525,0,0,1-1.173-2.023,8.921,8.921,0,0,1-.424-2.9V37.48h4.187v7.54a3.466,3.466,0,0,0,.794,2.609,2.7,2.7,0,0,0,1.906.734,2.567,2.567,0,0,0,1.261-.309,2.924,2.924,0,0,0,.939-.821,4.039,4.039,0,0,0,.587-1.15,4.118,4.118,0,0,0,.205-1.277V37.48h4.195Z" transform="translate(-116.515 -30.295)" fill="#161e26"/>
  <path id="Path_8323" data-name="Path 8323" d="M338.256,47.35a3.173,3.173,0,0,0,1.534-.28.823.823,0,0,0,.468-.719,1.039,1.039,0,0,0-.587-.865,7.169,7.169,0,0,0-2.139-.69,7.437,7.437,0,0,1-3.685-1.7,4.049,4.049,0,0,1-1.275-3.079,3.87,3.87,0,0,1,.383-1.7,4.1,4.1,0,0,1,1.114-1.394,5.345,5.345,0,0,1,1.819-.937,8.3,8.3,0,0,1,2.463-.337,12,12,0,0,1,6.012,1.584l-2.2,3.11a7.436,7.436,0,0,0-1.745-.88,5.9,5.9,0,0,0-2.009-.353,2.435,2.435,0,0,0-1.233.249.75.75,0,0,0-.41.661.863.863,0,0,0,.47.717,6.477,6.477,0,0,0,1.817.631,13.319,13.319,0,0,1,2.567.836,6.209,6.209,0,0,1,1.672,1.087,3.468,3.468,0,0,1,.9,1.342,4.763,4.763,0,0,1,.263,1.612,3.966,3.966,0,0,1-1.628,3.274,7.254,7.254,0,0,1-4.532,1.261,11.133,11.133,0,0,1-1.685-.132,11.726,11.726,0,0,1-1.672-.383,13.477,13.477,0,0,1-1.534-.575,6.084,6.084,0,0,1-1.246-.734l2.2-3.11a6.251,6.251,0,0,0,1.76,1.072A5.536,5.536,0,0,0,338.256,47.35Z" transform="translate(-268.474 -28.812)" fill="#161e26"/>
  <path id="Path_8324" data-name="Path 8324" d="M409.375,35.492a9.476,9.476,0,0,1,3.05.439,5.672,5.672,0,0,1,2.141,1.261,5.076,5.076,0,0,1,1.262,1.965,7.6,7.6,0,0,1,.41,2.58V50.3h-3.552l-.117-1.407h-.059a4.718,4.718,0,0,1-1.773,1.319,6.223,6.223,0,0,1-2.509.47,6.559,6.559,0,0,1-2.419-.41,5.32,5.32,0,0,1-1.749-1.075A4.427,4.427,0,0,1,403,47.665a4.751,4.751,0,0,1-.353-1.8,4.147,4.147,0,0,1,1.687-3.593,7.875,7.875,0,0,1,4.68-1.217c.527,0,1.045.021,1.553.059s1,.1,1.467.176v-.37a1.839,1.839,0,0,0-.615-1.451,2.964,2.964,0,0,0-1.994-.543,7.941,7.941,0,0,0-2.186.322,8.563,8.563,0,0,0-2.3,1.085l-1.84-3.286q.644-.322,1.407-.615a13.858,13.858,0,0,1,1.583-.5,16.334,16.334,0,0,1,1.658-.322,11.657,11.657,0,0,1,1.626-.117Zm-.41,12.078a3.53,3.53,0,0,0,1.15-.192,2.735,2.735,0,0,0,.982-.587,3.026,3.026,0,0,0,.69-.983,3.278,3.278,0,0,0,.262-1.342v-.088q-.527-.115-1.173-.192a12.174,12.174,0,0,0-1.342-.073q-2.672,0-2.67,1.725a1.577,1.577,0,0,0,.546,1.252,2.293,2.293,0,0,0,1.555.485Z" transform="translate(-325.458 -28.686)" fill="#161e26"/>
  <path id="Path_8325" data-name="Path 8325" d="M485.27,51.912h4.195V37.48H485.27Z" transform="translate(-392.24 -30.295)" fill="#161e26"/>
  <path id="Path_8326" data-name="Path 8326" d="M531.377,19.23V1.84h-4.195V9.846h-.063a5.992,5.992,0,0,0-4.164-1.534,6.3,6.3,0,0,0-4.81,2.126,7.125,7.125,0,0,0-1.409,2.406,8.954,8.954,0,0,0-.5,3.035,8.961,8.961,0,0,0,.5,3.054,7.116,7.116,0,0,0,1.409,2.4,6.541,6.541,0,0,0,7.406,1.6,6.1,6.1,0,0,0,2.067-1.5h.06l.146,1.672h5.065V19.23Zm-5.119-.746a3.259,3.259,0,0,1-2.45.983,3.209,3.209,0,0,1-2.44-.983,3.594,3.594,0,0,1-.94-2.6,3.642,3.642,0,0,1,.94-2.609,3.186,3.186,0,0,1,2.433-1,3.24,3.24,0,0,1,2.45,1,3.6,3.6,0,0,1,.959,2.609A3.572,3.572,0,0,1,526.259,18.484Z" transform="translate(-417.271 -1.487)" fill="#161e26"/>
  <path id="Path_8327" data-name="Path 8327" d="M488.52,5.35a2.177,2.177,0,0,1-.66,1.6,2.319,2.319,0,0,1-1.716.659,2.369,2.369,0,0,1-1.725-.659,2.149,2.149,0,0,1-.681-1.6,2.2,2.2,0,0,1,.675-1.612,2.343,2.343,0,0,1,1.725-.675,2.3,2.3,0,0,1,1.716.675A2.229,2.229,0,0,1,488.52,5.35Z" transform="translate(-391.002 -2.475)" fill="#e03131"/>
  <path id="Path_8328" data-name="Path 8328" d="M5.615,3.45h5.2L5.2,16.2H0Z" transform="translate(0 -2.789)" fill="#e03131"/>
  <path id="Path_8329" data-name="Path 8329" d="M248.571,7.185h-4.352V5.866a3.012,3.012,0,0,1,.278-1.422,1.084,1.084,0,0,1,1.041-.514,4.409,4.409,0,0,1,1.041.132q.543.132,1.012.278l.767-3.959c-.51-.1-1.066-.192-1.672-.265A13.445,13.445,0,0,0,245.011,0a4.571,4.571,0,0,0-3.74,1.511A6.722,6.722,0,0,0,240.024,5.9v1.29h-5.251V6.365a5.1,5.1,0,0,1,.249-1.819,1.076,1.076,0,0,1,1.129-.615,6.4,6.4,0,0,1,1.173.117q.615.119,1.2.265l.792-3.9A15.283,15.283,0,0,0,237.678.1a12.461,12.461,0,0,0-1.614-.1,6.239,6.239,0,0,0-2.624.483A4.47,4.47,0,0,0,231.752,1.8a5.085,5.085,0,0,0-.909,1.917,9.764,9.764,0,0,0-.265,2.318v1.15H228.47v3.873h2.109V21.621h4.195V11.058h5.251V21.617h4.195V11.058h2.646Z" transform="translate(-184.67 0)" fill="#161e26"/>
</svg>
